<svg width="16" height="16" viewBox="0 0 16 16" fill="none" xmlns="http://www.w3.org/2000/svg">
<g id="Trash icon" clip-path="url(#clip0_270_29420)">
<g id="Vector">
<path d="M9.12613 0.5C9.21649 0.528902 9.30799 0.55429 9.39681 0.586707C9.93277 0.783947 10.2938 1.29287 10.3069 1.87131C10.3107 2.03183 10.3073 2.19275 10.3073 2.37437C10.3657 2.37437 10.4164 2.37437 10.4668 2.37437C11.2404 2.37437 12.014 2.37358 12.7879 2.37476C13.5084 2.37593 13.9971 2.8743 13.999 3.60858C13.9998 3.89175 14.0009 4.17491 13.9986 4.45808C13.9959 4.75765 13.8052 4.95176 13.508 4.95176C9.83665 4.95255 6.16565 4.95255 2.49426 4.95176C2.19821 4.95176 2.00328 4.75648 2.00443 4.45808C2.00597 4.08742 1.98252 3.71247 2.03019 3.34768C2.10555 2.77275 2.58461 2.37905 3.15672 2.37593C3.94567 2.37163 4.73346 2.37476 5.52165 2.37476C5.57355 2.37476 5.62584 2.37476 5.69466 2.37476C5.69466 2.22946 5.69428 2.09432 5.69466 1.95958C5.69697 1.22373 6.11874 0.69021 6.82734 0.524997C6.84464 0.521091 6.8604 0.508593 6.87655 0.5C7.62667 0.5 8.3764 0.5 9.12613 0.5ZM6.61895 2.3646C7.55016 2.3646 8.46406 2.3646 9.3845 2.3646C9.3845 2.19392 9.39142 2.033 9.38297 1.87287C9.36989 1.63345 9.17689 1.44167 8.93851 1.43972C8.31412 1.43464 7.68972 1.43464 7.06571 1.43972C6.82772 1.44167 6.63356 1.63501 6.62087 1.87326C6.61203 2.033 6.61895 2.19392 6.61895 2.3646Z" fill="#D84842"/>
<path d="M8.00219 5.70275C9.67429 5.70275 11.3468 5.70275 13.0189 5.70275C13.243 5.70275 13.273 5.74024 13.2622 5.96951C13.2088 7.08577 13.1584 8.20242 13.1058 9.31868C13.0312 10.8884 12.9639 12.4585 12.8762 14.0274C12.8359 14.7504 12.2422 15.2992 11.5263 15.3085C10.9304 15.3159 10.3344 15.3105 9.73888 15.3105C8.00411 15.3105 6.26935 15.3117 4.53458 15.3097C3.82752 15.3089 3.25541 14.8445 3.14238 14.1563C3.09278 13.8548 3.09509 13.5439 3.08048 13.2369C3.01781 11.9058 2.95783 10.5748 2.89593 9.24408C2.84479 8.14227 2.79212 7.04046 2.73944 5.93865C2.7306 5.75079 2.77136 5.70236 2.95706 5.70236C4.63839 5.70275 6.3201 5.70275 8.00219 5.70275ZM5.23317 9.90611C5.23317 10.3209 5.23317 10.7361 5.23317 11.1509C5.23317 11.7563 5.23087 12.3616 5.23471 12.9666C5.23625 13.2131 5.41619 13.4096 5.64803 13.4338C5.87987 13.458 6.09825 13.2967 6.14554 13.0608C6.15785 12.9995 6.15592 12.9346 6.15592 12.8713C6.15631 10.904 6.15631 8.93709 6.15631 6.96977C6.15631 6.92603 6.159 6.8815 6.154 6.83815C6.13247 6.64716 6.0352 6.50928 5.85949 6.43859C5.54806 6.31321 5.2351 6.54561 5.23433 6.90415C5.23202 7.9048 5.23356 8.90545 5.23317 9.90611ZM7.54005 9.91275C7.54005 9.99555 7.54005 10.0787 7.54005 10.1615C7.54005 11.0938 7.53889 12.0261 7.5412 12.9584C7.54197 13.2076 7.71575 13.4041 7.94721 13.4326C8.17828 13.4611 8.39936 13.3037 8.45049 13.0678C8.46472 13.0022 8.4628 12.9323 8.4628 12.8639C8.46357 11.0919 8.46318 9.31985 8.46318 7.54821C8.46318 7.32363 8.46587 7.09905 8.46203 6.87447C8.45857 6.6702 8.33976 6.50186 8.16021 6.43468C7.85109 6.31907 7.54197 6.54561 7.5412 6.89517C7.53889 7.90168 7.54043 8.90741 7.54005 9.91275ZM9.84692 9.91236C9.84692 9.96586 9.84692 10.0198 9.84692 10.0733C9.84692 11.0302 9.84615 11.9867 9.84769 12.9436C9.84807 13.2041 10.0169 13.4037 10.2533 13.433C10.484 13.4619 10.7055 13.3045 10.757 13.069C10.7712 13.0034 10.7693 12.9334 10.7693 12.8651C10.7701 11.1321 10.7697 9.39914 10.7697 7.66616C10.7697 7.40253 10.772 7.13889 10.7685 6.87525C10.7658 6.67059 10.6466 6.50264 10.4675 6.43507C10.153 6.31712 9.84807 6.54795 9.84769 6.90962C9.84615 7.91105 9.84731 8.9117 9.84692 9.91236Z" fill="#D84842"/>
</g>
</g>
<defs>
<clipPath id="clip0_270_29420">
<rect width="15" height="15" fill="white" transform="translate(0.5 0.5)"/>
</clipPath>
</defs>
</svg>
