<svg width="20" height="20" viewBox="0 0 20 20" fill="none" xmlns="http://www.w3.org/2000/svg">
<g id="S&#225;&#187;&#173;a">
<path id="Vector" d="M14.4526 8.67695L7.84247 15.2881C7.48789 15.6425 7.04373 15.8938 6.55742 16.0153L4.02163 16.6496C3.9288 16.673 3.83148 16.6719 3.73919 16.6464C3.6469 16.6209 3.5628 16.5719 3.4951 16.5042C3.4274 16.4366 3.37843 16.3524 3.35295 16.2602C3.32748 16.1679 3.32639 16.0706 3.34978 15.9777L3.984 13.443C4.10566 12.9562 4.35741 12.5116 4.71231 12.1569L11.3213 5.54568L14.4526 8.67695ZM16.0188 3.9817C16.4338 4.39683 16.6669 4.95979 16.6669 5.54678C16.6669 6.13378 16.4338 6.69674 16.0188 7.11187L15.2351 7.8933L12.1038 4.76314L12.8875 3.9817C13.0931 3.77605 13.3371 3.61291 13.6058 3.5016C13.8744 3.3903 14.1623 3.33301 14.4531 3.33301C14.7439 3.33301 15.0318 3.3903 15.3005 3.5016C15.5691 3.61291 15.8132 3.77605 16.0188 3.9817Z" fill="#333333"/>
</g>
</svg>
