<svg width="24" height="24" viewBox="0 0 24 24" fill="none" xmlns="http://www.w3.org/2000/svg">
<path d="M12 12.5V13H12.5H15.25C15.3881 13 15.5 13.1119 15.5 13.25C15.5 13.3881 15.3881 13.5 15.25 13.5H11.5V9.75C11.5 9.61193 11.6119 9.5 11.75 9.5C11.8881 9.5 12 9.61193 12 9.75V12.5Z" stroke="#858585"/>
<path d="M19.9024 9.14211L19.9021 9.14121C19.5213 8.23798 18.9685 7.41741 18.2745 6.72517L18.274 6.72473C17.2233 5.67397 15.8876 4.95414 14.4322 4.6542C13.4215 4.44857 12.3798 4.4486 11.3691 4.65429C9.91265 4.95219 8.57616 5.67243 7.52645 6.72512L7.52612 6.72546C6.83341 7.41882 6.28052 8.23894 5.89758 9.14113C5.50305 10.074 5.29985 11.0766 5.29999 12.0895L5.3005 12.1022L5.3213 12.6222H4.8009H4.00378L5.7 14.8697L7.39622 12.6222H6.6009H6.1205L6.1013 12.1421L6.1004 12.1196L6.10002 12.1102L6.1 12.1007C6.0972 10.7453 6.50181 9.4204 7.26134 8.29784C7.75072 7.57432 8.37378 6.95092 9.09705 6.46116L9.09804 6.46049C9.83406 5.96466 10.6597 5.617 11.5287 5.43697L11.5294 5.43681C13.2959 5.07361 15.1344 5.42674 16.6406 6.41858C18.1468 7.41041 19.1976 8.95978 19.5619 10.7261L19.5622 10.7279C19.7453 11.632 19.7453 12.5637 19.5622 13.4679L19.5621 13.4687C19.3843 14.3392 19.0362 15.1659 18.5378 15.9014C18.2953 16.2613 18.0166 16.6001 17.7083 16.9075L19.9024 9.14211ZM19.9024 9.14211C20.2988 10.0773 20.5021 11.0829 20.5 12.0986L20.5 12.1003C20.5018 13.6146 20.0495 15.0947 19.2015 16.3494L19.2012 16.3498C18.3772 17.5718 17.2159 18.5281 15.8586 19.1026C14.9218 19.4963 13.9159 19.6992 12.8998 19.6997H12.8997C11.9018 19.7002 10.9136 19.504 9.99166 19.122C9.3303 18.848 8.71238 18.4824 8.1556 18.0369C8.02959 17.9361 7.99479 17.7129 8.16314 17.5445C8.30905 17.3986 8.59131 17.368 8.82551 17.5435C8.91504 17.6107 9.00624 17.6756 9.09903 17.7383C9.83421 18.2357 10.6601 18.5834 11.5297 18.7617L11.5309 18.7619C12.4348 18.9448 13.3661 18.9448 14.27 18.7619L14.2714 18.7616C14.7087 18.6718 15.136 18.539 15.5472 18.3652L15.5482 18.3648M19.9024 9.14211L15.5482 18.3648M15.5482 18.3648C16.3547 18.0217 17.088 17.5271 17.7082 16.9077L15.5482 18.3648Z" fill="#858585" stroke="#858585"/>
</svg>
