<svg width="24" height="24" viewBox="0 0 24 24" fill="none" xmlns="http://www.w3.org/2000/svg"><path d="M6.6 19.2H4.8C4.32261 19.2 3.86477 19.0104 3.52721 18.6728C3.18964 18.3352 3 17.8774 3 17.4V7.5C3 7.26131 3.09482 7.03239 3.2636 6.8636C3.43239 6.69482 3.66131 6.6 3.9 6.6H6.6459C6.8727 4.5804 8.571 3 10.65 3C12.729 3 14.4273 4.5804 14.6541 6.6H17.4C17.6387 6.6 17.8676 6.69482 18.0364 6.8636C18.2052 7.03239 18.3 7.26131 18.3 7.5V9.3H7.5C7.26131 9.3 7.03239 9.39482 6.8636 9.5636C6.69482 9.73239 6.6 9.9613 6.6 10.2V19.2ZM12.855 6.6C12.6462 5.574 11.7363 4.8 10.65 4.8C9.5637 4.8 8.6538 5.574 8.445 6.6H12.855Z" fill="currentColor"></path><path d="M9.3 11.1H20.1C20.3387 11.1 20.5676 11.1948 20.7364 11.3636C20.9052 11.5324 21 11.7613 21 12V19.2C21 19.6774 20.8104 20.1352 20.4728 20.4728C20.1352 20.8104 19.6774 21 19.2 21H10.2C9.72261 21 9.26477 20.8104 8.92721 20.4728C8.58964 20.1352 8.4 19.6774 8.4 19.2V12C8.4 11.7613 8.49482 11.5324 8.6636 11.3636C8.83239 11.1948 9.0613 11.1 9.3 11.1ZM10.2 12.9C10.2 15.3813 12.2187 17.4 14.7 17.4C17.1813 17.4 19.2 15.3813 19.2 12.9H17.4C17.4 14.3886 16.1886 15.6 14.7 15.6C13.2114 15.6 12 14.3886 12 12.9H10.2Z" fill="currentColor"></path></svg>