<svg width="24" height="24" viewBox="0 0 24 24" fill="none" xmlns="http://www.w3.org/2000/svg">
<rect width="24" height="24" rx="12" fill="#F8FAFC"/>
<path d="M10.833 12C10.833 11.5886 11.1717 11.25 11.583 11.25C11.9944 11.25 12.333 11.5886 12.333 12C12.333 12.4114 11.9944 12.75 11.583 12.75C11.1717 12.75 10.833 12.4114 10.833 12ZM10.833 8.25C10.833 7.83864 11.1717 7.5 11.583 7.5C11.9944 7.5 12.333 7.83864 12.333 8.25C12.333 8.66136 11.9944 9 11.583 9C11.1717 9 10.833 8.66136 10.833 8.25ZM10.833 15.75C10.833 15.3386 11.1717 15 11.583 15C11.9944 15 12.333 15.3386 12.333 15.75C12.333 16.1614 11.9944 16.5 11.583 16.5C11.1717 16.5 10.833 16.1614 10.833 15.75Z" fill="#5C5C5C" stroke="#5C5C5C"/>
</svg>
