<svg width="24" height="24" viewBox="0 0 24 24" fill="none" xmlns="http://www.w3.org/2000/svg">
<path d="M15.3889 7.28571V7.78571H15.8889H17.4444C17.9793 7.78571 18.5 8.28646 18.5 9V19.2857C18.5 19.9993 17.9793 20.5 17.4444 20.5H6.55556C6.02075 20.5 5.5 19.9993 5.5 19.2857V9C5.5 8.28646 6.02075 7.78571 6.55556 7.78571H8.11111H8.61111V7.28571C8.61111 5.11503 10.143 3.5 12 3.5C13.857 3.5 15.3889 5.11503 15.3889 7.28571ZM14.3333 7.78571H14.8333V7.28571C14.8333 5.59925 13.643 4.21429 12 4.21429C10.357 4.21429 9.16667 5.59925 9.16667 7.28571V7.78571H9.66667H14.3333ZM17.4444 19.7857H17.9444V19.2857V9V8.5H17.4444H6.55556H6.05556V9V19.2857V19.7857H6.55556H17.4444ZM15.3612 10.3571C15.1466 12.2712 13.7114 13.6429 12 13.6429C10.2886 13.6429 8.85341 12.2712 8.6388 10.3571H9.20224C9.4114 11.8089 10.5227 12.9286 12 12.9286C13.4773 12.9286 14.5886 11.8089 14.7978 10.3571H15.3612Z" fill="#858585" stroke="#858585"/>
</svg>
