<svg width="20" height="20" viewBox="0 0 20 20" fill="none" xmlns="http://www.w3.org/2000/svg">
<path fill-rule="evenodd" clip-rule="evenodd" d="M9.26373 3.33334C8.31797 3.33342 7.38595 3.55967 6.54542 3.99321C5.70489 4.42675 4.98023 5.05501 4.43189 5.82558C3.88355 6.59614 3.52743 7.48666 3.39325 8.42285C3.25907 9.35904 3.35071 10.3137 3.66054 11.2073C3.97037 12.1009 4.48939 12.9074 5.17431 13.5596C5.85922 14.2117 6.69017 14.6907 7.59783 14.9564C8.50548 15.2221 9.46352 15.2669 10.392 15.0871C11.3205 14.9072 12.1925 14.508 12.9353 13.9226L15.4836 16.4708C15.6152 16.5979 15.7914 16.6682 15.9744 16.6666C16.1573 16.6651 16.3323 16.5917 16.4617 16.4623C16.5911 16.3329 16.6645 16.1579 16.6661 15.975C16.6676 15.792 16.5973 15.6158 16.4702 15.4842L13.922 12.9359C14.6114 12.0614 15.0406 11.0104 15.1606 9.90328C15.2806 8.79616 15.0864 7.67762 14.6004 6.67569C14.1143 5.67375 13.356 4.8289 12.4122 4.2378C11.4685 3.64671 10.3773 3.33327 9.26373 3.33334ZM4.72827 9.26432C4.72827 8.06144 5.20611 6.90783 6.05668 6.05727C6.90724 5.20671 8.06085 4.72887 9.26373 4.72887C10.4666 4.72887 11.6202 5.20671 12.4708 6.05727C13.3213 6.90783 13.7992 8.06144 13.7992 9.26432C13.7992 10.4672 13.3213 11.6208 12.4708 12.4714C11.6202 13.3219 10.4666 13.7998 9.26373 13.7998C8.06085 13.7998 6.90724 13.3219 6.05668 12.4714C5.20611 11.6208 4.72827 10.4672 4.72827 9.26432Z" fill="#858585"/>
</svg>
